<svg width="378" height="181" viewBox="0 0 378 181" fill="none" xmlns="http://www.w3.org/2000/svg">
<rect y="0.0546875" width="377.31" height="180.891" fill="black"/>
<rect x="44.6077" y="125.638" width="2.14341" height="16.9104" fill="#AFAFAF"/>
<mask id="mask0_11_602" style="mask-type:alpha" maskUnits="userSpaceOnUse" x="0" y="0" width="378" height="181">
<rect y="0.0553131" width="377.31" height="180.89" fill="#D9D9D9"/>
</mask>
<g mask="url(#mask0_11_602)">
<path d="M59.9945 142.787C59.1526 142.787 58.3786 142.616 57.6718 142.275C56.965 141.934 56.3581 141.465 55.8504 140.87C55.3421 140.274 54.9484 139.595 54.6712 138.833C54.3933 138.071 54.2544 137.277 54.2544 136.452C54.2544 135.578 54.3933 134.753 54.6712 133.975C54.9484 133.197 55.3453 132.51 55.862 131.914C56.378 131.319 56.9849 130.85 57.684 130.509C58.3825 130.168 59.1603 129.997 60.0182 129.997C61.0502 129.997 61.951 130.247 62.7211 130.747C63.4913 131.247 64.1386 131.886 64.6622 132.665V130.187H66.5201V142.427C66.5201 143.598 66.2384 144.586 65.6751 145.393C65.111 146.199 64.3492 146.813 63.3882 147.231C62.4273 147.65 61.3594 147.86 60.1846 147.86C58.7877 147.86 57.6443 147.614 56.755 147.122C55.8658 146.629 55.1276 145.962 54.5399 145.121L55.7544 144.049C56.2467 144.779 56.8863 145.327 57.6718 145.692C58.458 146.058 59.2954 146.24 60.1846 146.24C60.9465 146.24 61.6494 146.105 62.2922 145.834C62.9356 145.564 63.4516 145.151 63.8409 144.595C64.2295 144.039 64.4241 143.341 64.4241 142.501V140.31C63.9638 141.072 63.3325 141.676 62.531 142.12C61.7288 142.564 60.8831 142.787 59.9945 142.787ZM60.6373 141.072C61.0816 141.072 61.5105 140.993 61.9234 140.834C62.3364 140.676 62.7173 140.464 63.0668 140.202C63.4164 139.941 63.7103 139.643 63.9484 139.309C64.1859 138.976 64.3447 138.635 64.4241 138.286V134.713C64.2019 134.141 63.8844 133.637 63.4715 133.2C63.0585 132.764 62.5899 132.423 62.0662 132.176C61.5425 131.93 61.0028 131.807 60.4471 131.807C59.812 131.807 59.2435 131.943 58.7442 132.212C58.2435 132.482 57.8184 132.843 57.4702 133.295C57.12 133.748 56.8504 134.252 56.6603 134.808C56.4695 135.364 56.3741 135.927 56.3741 136.5C56.3741 137.119 56.4849 137.702 56.707 138.249C56.9298 138.797 57.2314 139.286 57.6123 139.715C57.9939 140.144 58.4465 140.477 58.9702 140.715C59.4945 140.953 60.0502 141.072 60.6373 141.072Z" fill="#AFAFAF"/>
<path d="M74.5464 137.6V130.187H76.6424V137.191C76.6424 138.453 76.8646 139.4 77.3089 140.03C77.7532 140.662 78.4132 140.977 79.2865 140.977C79.8582 140.977 80.4094 140.855 80.9414 140.611C81.4734 140.367 81.9536 140.017 82.3825 139.561C82.8108 139.104 83.1444 138.562 83.3825 137.932V130.187H85.4786V140.172C85.4786 140.424 85.5298 140.61 85.6341 140.728C85.7366 140.847 85.9075 140.913 86.1457 140.929V142.549C85.9075 142.58 85.7206 142.6 85.5861 142.608C85.451 142.616 85.3198 142.62 85.193 142.62C84.7961 142.62 84.4549 142.498 84.1687 142.254C83.8832 142.008 83.7321 141.704 83.7167 141.341L83.6687 139.897C83.1284 140.813 82.4017 141.524 81.4894 142.029C80.5759 142.534 79.5797 142.787 78.4997 142.787C77.1981 142.787 76.2141 142.348 75.547 141.472C74.8799 140.596 74.5464 139.306 74.5464 137.6Z" fill="#AFAFAF"/>
<path d="M92.7667 138.976C92.7667 138.187 92.9927 137.504 93.4453 136.928C93.898 136.352 94.5209 135.906 95.3148 135.591C96.1086 135.275 97.0299 135.117 98.0779 135.117C98.6336 135.117 99.2213 135.162 99.8404 135.249C100.459 135.336 101.007 135.467 101.484 135.641V134.742C101.484 133.802 101.198 133.062 100.626 132.522C100.055 131.982 99.245 131.711 98.197 131.711C97.5139 131.711 96.8589 131.834 96.2315 132.081C95.6048 132.327 94.9415 132.68 94.2437 133.14L93.4812 131.663C94.2911 131.108 95.1009 130.692 95.9108 130.414C96.7206 130.136 97.5619 129.996 98.4351 129.996C100.023 129.996 101.278 130.434 102.198 131.307C103.119 132.181 103.58 133.397 103.58 134.955V140.174C103.58 140.425 103.631 140.61 103.734 140.728C103.837 140.847 104.008 140.913 104.246 140.929V142.548C104.04 142.58 103.862 142.604 103.71 142.62C103.56 142.635 103.436 142.644 103.342 142.644C102.849 142.644 102.48 142.509 102.234 142.239C101.988 141.969 101.849 141.683 101.817 141.381L101.77 140.596C101.23 141.294 100.523 141.834 99.6496 142.215C98.7764 142.596 97.9114 142.786 97.0536 142.786C96.2283 142.786 95.4895 142.617 94.8391 142.278C94.1873 141.939 93.679 141.481 93.3141 140.905C92.9492 140.329 92.7667 139.686 92.7667 138.976ZM100.865 139.847C101.055 139.627 101.206 139.403 101.317 139.175C101.428 138.947 101.484 138.754 101.484 138.598V137.065C100.991 136.876 100.475 136.731 99.9358 136.628C99.3954 136.526 98.8641 136.475 98.3404 136.475C97.2757 136.475 96.4146 136.683 95.7558 137.1C95.0964 137.516 94.7674 138.087 94.7674 138.809C94.7674 139.202 94.8743 139.583 95.0887 139.953C95.3032 140.323 95.6208 140.625 96.0414 140.861C96.462 141.097 96.9819 141.215 97.6016 141.215C98.2527 141.215 98.8717 141.085 99.4595 140.825C100.047 140.566 100.515 140.24 100.865 139.847Z" fill="#AFAFAF"/>
<path d="M118.036 142.001C117.862 142.08 117.623 142.183 117.323 142.31C117.02 142.437 116.671 142.548 116.275 142.644C115.877 142.739 115.456 142.786 115.012 142.786C114.504 142.786 114.036 142.695 113.607 142.513C113.178 142.331 112.836 142.044 112.582 141.655C112.328 141.266 112.202 140.778 112.202 140.19V131.831H110.51V130.187H112.202V126.043H114.298V130.187H117.084V131.831H114.298V139.548C114.329 139.992 114.479 140.322 114.75 140.536C115.02 140.751 115.337 140.857 115.703 140.857C116.115 140.857 116.496 140.786 116.846 140.643C117.195 140.5 117.426 140.397 117.536 140.333L118.036 142.001Z" fill="#AFAFAF"/>
<path d="M130.088 142.786C129.151 142.786 128.298 142.617 127.527 142.277C126.758 141.939 126.091 141.474 125.527 140.883C124.963 140.292 124.527 139.611 124.218 138.838C123.908 138.066 123.753 137.247 123.753 136.379C123.753 135.213 124.023 134.149 124.563 133.188C125.102 132.226 125.853 131.455 126.814 130.871C127.774 130.288 128.874 129.996 130.112 129.996C131.366 129.996 132.458 130.292 133.387 130.883C134.316 131.475 135.038 132.247 135.555 133.202C136.07 134.156 136.328 135.185 136.328 136.29C136.328 136.447 136.325 136.601 136.317 136.751C136.308 136.901 136.296 137.015 136.281 137.094H125.968C126.031 137.895 126.257 138.605 126.647 139.225C127.036 139.845 127.54 140.332 128.159 140.685C128.778 141.038 129.445 141.214 130.16 141.214C130.922 141.214 131.64 141.023 132.316 140.642C132.99 140.261 133.454 139.761 133.709 139.142L135.518 139.642C135.248 140.246 134.848 140.786 134.316 141.262C133.784 141.738 133.157 142.112 132.434 142.382C131.712 142.651 130.93 142.786 130.088 142.786ZM125.896 135.641H134.376C134.312 134.841 134.082 134.135 133.684 133.522C133.287 132.91 132.78 132.432 132.161 132.087C131.541 131.741 130.858 131.568 130.112 131.568C129.381 131.568 128.707 131.741 128.088 132.087C127.469 132.432 126.964 132.91 126.575 133.522C126.186 134.135 125.96 134.841 125.896 135.641Z" fill="#AFAFAF"/>
<path d="M162.17 142.548H160.074V135.655C160.074 134.364 159.864 133.413 159.444 132.799C159.022 132.185 158.399 131.878 157.574 131.878C156.732 131.878 155.97 132.181 155.287 132.786C154.604 133.393 154.12 134.176 153.834 135.136V142.548H151.739V135.655C151.739 134.348 151.531 133.393 151.119 132.786C150.706 132.181 150.086 131.878 149.261 131.878C148.436 131.878 147.677 132.172 146.987 132.761C146.296 133.349 145.808 134.13 145.522 135.103V142.548H143.426V130.186H145.331V132.857C145.84 131.943 146.499 131.238 147.309 130.741C148.118 130.245 149.031 129.996 150.047 129.996C151.079 129.996 151.905 130.276 152.524 130.836C153.144 131.395 153.525 132.116 153.668 132.998C154.223 132.021 154.898 131.277 155.692 130.765C156.486 130.252 157.391 129.996 158.408 129.996C159.122 129.996 159.721 130.126 160.206 130.386C160.69 130.647 161.074 131.009 161.36 131.474C161.647 131.939 161.853 132.486 161.98 133.117C162.107 133.747 162.17 134.432 162.17 135.173V142.548Z" fill="#AFAFAF"/>
<path d="M170.197 125.161H172.293V127.781H170.197V125.161ZM170.197 130.116H172.293V142.548H170.197V130.116Z" fill="#AFAFAF"/>
<path d="M190.466 133.95C190.466 132.918 190.644 131.906 191.001 130.914C191.359 129.921 191.882 129.017 192.573 128.199C193.264 127.38 194.11 126.73 195.11 126.245C196.11 125.761 197.245 125.519 198.516 125.519C200.024 125.519 201.318 125.864 202.398 126.555C203.477 127.246 204.28 128.131 204.804 129.21L203.112 130.306C202.779 129.592 202.354 129.024 201.838 128.603C201.322 128.183 200.766 127.886 200.171 127.71C199.575 127.535 198.992 127.448 198.421 127.448C197.484 127.448 196.654 127.638 195.931 128.019C195.208 128.4 194.601 128.909 194.11 129.544C193.617 130.179 193.247 130.89 193.002 131.676C192.756 132.462 192.633 133.252 192.633 134.046C192.633 134.92 192.779 135.761 193.074 136.57C193.367 137.38 193.776 138.094 194.3 138.713C194.823 139.333 195.443 139.825 196.158 140.19C196.872 140.556 197.65 140.738 198.492 140.738C199.079 140.738 199.683 140.635 200.302 140.428C200.921 140.223 201.501 139.901 202.041 139.464C202.58 139.028 203.009 138.46 203.327 137.761L205.113 138.738C204.764 139.58 204.224 140.294 203.493 140.882C202.763 141.469 201.949 141.914 201.052 142.215C200.154 142.517 199.27 142.668 198.396 142.668C197.237 142.668 196.173 142.418 195.205 141.917C194.236 141.417 193.398 140.751 192.692 139.917C191.985 139.083 191.437 138.146 191.049 137.106C190.66 136.067 190.466 135.014 190.466 133.95Z" fill="#AFAFAF"/>
<path d="M211.258 138.976C211.258 138.187 211.484 137.504 211.936 136.928C212.389 136.352 213.012 135.906 213.806 135.591C214.599 135.275 215.521 135.117 216.569 135.117C217.124 135.117 217.712 135.162 218.331 135.249C218.95 135.336 219.498 135.467 219.975 135.641V134.742C219.975 133.802 219.689 133.062 219.117 132.522C218.546 131.982 217.736 131.711 216.688 131.711C216.005 131.711 215.35 131.834 214.722 132.081C214.096 132.327 213.432 132.68 212.735 133.14L211.972 131.663C212.782 131.108 213.592 130.692 214.402 130.414C215.212 130.136 216.053 129.996 216.926 129.996C218.514 129.996 219.769 130.434 220.689 131.307C221.61 132.181 222.071 133.397 222.071 134.955V140.174C222.071 140.425 222.122 140.61 222.225 140.728C222.328 140.847 222.499 140.913 222.737 140.929V142.548C222.531 142.58 222.352 142.604 222.201 142.62C222.051 142.635 221.927 142.644 221.833 142.644C221.34 142.644 220.971 142.509 220.725 142.239C220.479 141.969 220.34 141.683 220.308 141.381L220.261 140.596C219.72 141.294 219.014 141.834 218.14 142.215C217.267 142.596 216.402 142.786 215.544 142.786C214.719 142.786 213.98 142.617 213.33 142.278C212.678 141.939 212.17 141.481 211.805 140.905C211.44 140.329 211.258 139.686 211.258 138.976ZM219.356 139.847C219.546 139.627 219.697 139.403 219.808 139.175C219.919 138.947 219.975 138.754 219.975 138.598V137.065C219.482 136.876 218.966 136.731 218.427 136.628C217.886 136.526 217.355 136.475 216.831 136.475C215.767 136.475 214.905 136.683 214.247 137.1C213.587 137.516 213.258 138.087 213.258 138.809C213.258 139.202 213.365 139.583 213.58 139.953C213.794 140.323 214.112 140.625 214.532 140.861C214.953 141.097 215.473 141.215 216.092 141.215C216.744 141.215 217.363 141.085 217.95 140.825C218.537 140.566 219.005 140.24 219.356 139.847Z" fill="#AFAFAF"/>
<path d="M248.936 142.548H246.84V135.655C246.84 134.364 246.63 133.413 246.21 132.799C245.789 132.185 245.165 131.878 244.34 131.878C243.498 131.878 242.736 132.181 242.054 132.786C241.37 133.393 240.886 134.176 240.6 135.136V142.548H238.505V135.655C238.505 134.348 238.297 133.393 237.885 132.786C237.472 132.181 236.852 131.878 236.027 131.878C235.202 131.878 234.443 132.172 233.753 132.761C233.062 133.349 232.574 134.13 232.288 135.103V142.548H230.192V130.186H232.097V132.857C232.606 131.943 233.265 131.238 234.075 130.741C234.884 130.245 235.797 129.996 236.813 129.996C237.845 129.996 238.671 130.276 239.29 130.836C239.91 131.395 240.291 132.116 240.434 132.998C240.99 132.021 241.664 131.277 242.458 130.765C243.252 130.252 244.157 129.996 245.174 129.996C245.888 129.996 246.487 130.126 246.972 130.386C247.456 130.647 247.84 131.009 248.127 131.474C248.413 131.939 248.619 132.486 248.746 133.117C248.873 133.747 248.936 134.432 248.936 135.173V142.548Z" fill="#AFAFAF"/>
<path d="M263.656 142.786C262.64 142.786 261.735 142.535 260.94 142.03C260.147 141.526 259.52 140.888 259.059 140.115V147.621H256.963V130.186H258.821V132.526C259.313 131.77 259.956 131.159 260.75 130.694C261.544 130.229 262.409 129.996 263.346 129.996C264.203 129.996 264.99 130.17 265.705 130.517C266.419 130.864 267.038 131.336 267.562 131.935C268.086 132.534 268.495 133.215 268.789 133.98C269.082 134.745 269.229 135.544 269.229 136.38C269.229 137.546 268.995 138.618 268.527 139.595C268.058 140.573 267.403 141.349 266.561 141.924C265.72 142.5 264.751 142.786 263.656 142.786ZM263.013 140.977C263.632 140.977 264.192 140.847 264.692 140.587C265.193 140.328 265.621 139.983 265.978 139.55C266.335 139.118 266.609 138.627 266.799 138.077C266.99 137.527 267.086 136.961 267.086 136.38C267.086 135.767 266.979 135.185 266.764 134.636C266.55 134.085 266.248 133.598 265.859 133.174C265.47 132.75 265.017 132.416 264.501 132.172C263.985 131.929 263.426 131.806 262.822 131.806C262.442 131.806 262.048 131.877 261.643 132.018C261.238 132.16 260.853 132.359 260.488 132.618C260.123 132.877 259.813 133.171 259.559 133.501C259.305 133.83 259.139 134.183 259.059 134.559V138.082C259.297 138.615 259.615 139.102 260.012 139.541C260.408 139.98 260.869 140.329 261.393 140.588C261.917 140.847 262.457 140.977 263.013 140.977Z" fill="#AFAFAF"/>
<path d="M276.565 125.161H278.661V127.781H276.565V125.161ZM276.565 130.116H278.661V142.548H276.565V130.116Z" fill="#AFAFAF"/>
<path d="M297.595 142.548H295.499V135.655C295.499 134.348 295.297 133.393 294.892 132.786C294.487 132.181 293.872 131.878 293.047 131.878C292.474 131.878 291.906 132.019 291.343 132.302C290.78 132.585 290.279 132.965 289.843 133.443C289.406 133.922 289.093 134.475 288.902 135.103V142.548H286.806V130.186H288.711V132.857C289.045 132.274 289.474 131.77 289.998 131.344C290.522 130.919 291.117 130.587 291.784 130.352C292.451 130.115 293.15 129.996 293.88 129.996C294.595 129.996 295.194 130.126 295.678 130.386C296.162 130.647 296.543 131.009 296.821 131.474C297.099 131.939 297.298 132.486 297.417 133.117C297.536 133.747 297.595 134.432 297.595 135.173V142.548Z" fill="#AFAFAF"/>
<path d="M304.645 138.976C304.645 138.187 304.871 137.504 305.324 136.928C305.777 136.352 306.399 135.906 307.193 135.591C307.987 135.275 308.908 135.117 309.956 135.117C310.512 135.117 311.1 135.162 311.719 135.249C312.338 135.336 312.886 135.467 313.362 135.641V134.742C313.362 133.802 313.076 133.062 312.505 132.522C311.933 131.982 311.124 131.711 310.076 131.711C309.392 131.711 308.738 131.834 308.11 132.081C307.483 132.327 306.82 132.68 306.122 133.14L305.36 131.663C306.17 131.108 306.979 130.692 307.789 130.414C308.599 130.136 309.44 129.996 310.314 129.996C311.901 129.996 313.156 130.434 314.077 131.307C314.997 132.181 315.458 133.397 315.458 134.955V140.174C315.458 140.425 315.51 140.61 315.613 140.728C315.716 140.847 315.887 140.913 316.125 140.929V142.548C315.919 142.58 315.74 142.604 315.589 142.62C315.439 142.635 315.315 142.644 315.22 142.644C314.728 142.644 314.359 142.509 314.113 142.239C313.866 141.969 313.727 141.683 313.696 141.381L313.649 140.596C313.108 141.294 312.401 141.834 311.528 142.215C310.655 142.596 309.79 142.786 308.932 142.786C308.107 142.786 307.368 142.617 306.718 142.278C306.066 141.939 305.558 141.481 305.193 140.905C304.828 140.329 304.645 139.686 304.645 138.976ZM312.743 139.847C312.933 139.627 313.085 139.403 313.196 139.175C313.307 138.947 313.362 138.754 313.362 138.598V137.065C312.87 136.876 312.353 136.731 311.814 136.628C311.274 136.526 310.743 136.475 310.218 136.475C309.154 136.475 308.293 136.683 307.634 137.1C306.975 137.516 306.646 138.087 306.646 138.809C306.646 139.202 306.753 139.583 306.967 139.953C307.182 140.323 307.499 140.625 307.92 140.861C308.341 141.097 308.86 141.215 309.48 141.215C310.131 141.215 310.75 141.085 311.338 140.825C311.925 140.566 312.393 140.24 312.743 139.847Z" fill="#AFAFAF"/>
<path d="M327.843 142.786C326.811 142.786 325.843 142.615 324.937 142.274C324.033 141.933 323.254 141.421 322.604 140.738L323.414 139.261C324.127 139.928 324.843 140.405 325.556 140.69C326.271 140.977 327.001 141.119 327.748 141.119C328.605 141.119 329.303 140.959 329.844 140.638C330.384 140.317 330.654 139.843 330.654 139.217C330.654 138.759 330.515 138.421 330.237 138.2C329.959 137.98 329.566 137.794 329.058 137.644C328.55 137.494 327.946 137.325 327.248 137.136C326.391 136.884 325.668 136.617 325.081 136.332C324.493 136.049 324.048 135.695 323.746 135.269C323.444 134.843 323.294 134.307 323.294 133.661C323.294 132.873 323.501 132.208 323.913 131.663C324.326 131.12 324.893 130.706 325.617 130.422C326.339 130.139 327.16 129.996 328.081 129.996C329.003 129.996 329.835 130.14 330.582 130.425C331.328 130.711 331.971 131.132 332.512 131.688L331.559 133.14C331.067 132.633 330.526 132.255 329.939 132.009C329.352 131.763 328.693 131.64 327.962 131.64C327.534 131.64 327.113 131.692 326.7 131.793C326.287 131.896 325.946 132.077 325.676 132.337C325.405 132.596 325.271 132.962 325.271 133.435C325.271 133.828 325.378 134.139 325.593 134.367C325.807 134.596 326.125 134.788 326.546 134.946C326.965 135.104 327.478 135.277 328.081 135.466C329.018 135.733 329.832 136.001 330.522 136.268C331.214 136.536 331.75 136.882 332.131 137.307C332.512 137.733 332.702 138.323 332.702 139.079C332.702 140.243 332.257 141.153 331.369 141.807C330.479 142.46 329.303 142.786 327.843 142.786Z" fill="#AFAFAF"/>
<rect x="99.9332" y="17.4818" width="177.443" height="26.6326" fill="#AFAFAF"/>
<path d="M111.97 27.5292H109.333C109.058 27.5292 108.839 27.2821 108.839 27.0068V25.2763C108.839 25.1668 108.921 24.9466 109.004 24.8646L113.015 21.7327H115.541C115.816 21.7327 116.036 21.9799 116.036 22.2545V39.8916C116.036 40.1662 115.816 40.4134 115.541 40.4134H112.492C112.19 40.4134 111.97 40.1662 111.97 39.8916V27.5292Z" fill="black"/>
<path d="M135.376 39.7002L143.974 21.211C144.056 21.0464 144.249 20.9088 144.442 20.9088H144.716C144.908 20.9088 145.1 21.0464 145.183 21.211L153.782 39.7002C153.947 40.0568 153.727 40.414 153.315 40.414H150.265C149.771 40.414 149.551 40.2488 149.303 39.7277L148.315 37.5568H140.842L139.853 39.7546C139.716 40.0843 139.414 40.414 138.865 40.414H135.842C135.431 40.414 135.211 40.0568 135.376 39.7002ZM146.666 33.8205L144.579 29.2878H144.551L142.491 33.8205H146.666Z" fill="black"/>
<path d="M161.499 21.403C161.499 21.1284 161.747 20.9082 162.021 20.9082H162.708L173.67 31.4575H173.697V21.7052C173.697 21.4306 173.917 21.1834 174.219 21.1834H177.516C177.791 21.1834 178.037 21.4306 178.037 21.7052V40.1938C178.037 40.4684 177.791 40.6887 177.516 40.6887H177.076C176.994 40.6887 176.774 40.6061 176.719 40.551L165.868 29.6444H165.84V39.8916C165.84 40.1662 165.62 40.414 165.318 40.414H162.049C161.774 40.414 161.527 40.1662 161.527 39.8916L161.499 21.403Z" fill="black"/>
<path d="M196.718 20.9082C202.212 20.9082 206.608 25.332 206.608 30.8256C206.608 36.3205 202.212 40.6887 196.718 40.6887C191.224 40.6887 186.855 36.3205 186.855 30.8256C186.855 25.332 191.224 20.9082 196.718 20.9082ZM196.718 36.293C199.74 36.293 202.212 33.8205 202.212 30.8256C202.212 27.8038 199.74 25.3038 196.718 25.3038C193.724 25.3038 191.25 27.8038 191.25 30.8256C191.25 33.8205 193.724 36.293 196.718 36.293Z" fill="black"/>
<path d="M226.99 21.7052C226.99 21.4306 227.21 21.1834 227.485 21.1834H234.188C239.49 21.1834 243.831 25.4965 243.831 30.7712C243.831 36.1009 239.49 40.414 234.188 40.414H227.485C227.21 40.414 226.99 40.1669 226.99 39.8916V21.7052ZM233.913 36.348C237.017 36.348 239.27 33.9031 239.27 30.7712C239.27 27.6675 237.017 25.2219 233.913 25.2219H231.276V36.348H233.913Z" fill="black"/>
<path d="M250.011 39.7002L258.61 21.211C258.692 21.0464 258.885 20.9088 259.077 20.9088H259.352C259.544 20.9088 259.736 21.0464 259.819 21.211L268.417 39.7002C268.582 40.0568 268.362 40.414 267.951 40.414H264.901C264.406 40.414 264.187 40.2488 263.939 39.7277L262.951 37.5568H255.478L254.489 39.7546C254.351 40.0843 254.049 40.414 253.5 40.414H250.478C250.066 40.414 249.846 40.0568 250.011 39.7002ZM261.302 33.8205L259.214 29.2878H259.187L257.127 33.8205H261.302Z" fill="black"/>
<path d="M84.2892 109.192V74.1574L69.1636 101.112H65.6085L50.4183 74.1574V109.192H44.6008V63.2976H50.7416L67.3537 93.0967L84.0312 63.2976H90.1067V109.192H84.2892Z" fill="white"/>
<path d="M97.8634 101.952C98.681 102.513 99.8122 103.041 101.257 103.536C102.7 104.032 104.413 104.279 106.395 104.279C108.42 104.279 110.08 103.949 111.373 103.288C112.666 102.626 113.657 101.623 114.346 100.278C115.035 98.9322 115.509 97.2145 115.769 95.1229C116.027 93.0307 116.156 90.5544 116.156 87.694V63.2976H121.974V86.4392C121.974 89.815 121.801 92.9142 121.457 95.7337C121.111 98.5532 120.422 101.001 119.388 103.074C118.354 105.145 116.813 106.738 114.766 107.848C112.719 108.959 109.993 109.515 106.589 109.515C104.434 109.515 102.539 109.277 100.901 108.804C99.2635 108.33 97.7552 107.62 96.3768 106.671L97.8634 101.952Z" fill="white"/>
<path d="M185.707 63.2979V109.192H179.889V88.3134H154.615V109.192H148.798V63.2979H154.615V83.1424H179.889V63.2979H185.707Z" fill="white"/>
<path d="M215.311 109.515C212.079 109.515 209.148 108.869 206.52 107.576C203.891 106.283 201.618 104.528 199.701 102.308C197.783 100.089 196.307 97.5896 195.273 94.8099C194.238 92.0301 193.722 89.176 193.722 86.2452C193.722 83.1856 194.271 80.2656 195.37 77.4859C196.469 74.7074 197.998 72.2291 199.959 70.053C201.92 67.8776 204.214 66.1529 206.843 64.8814C209.471 63.6113 212.338 62.9743 215.44 62.9743C218.672 62.9743 221.602 63.6433 224.231 64.9788C226.859 66.3149 229.121 68.1036 231.018 70.3437C232.914 72.5851 234.379 75.0844 235.414 77.8418C236.448 80.6005 236.965 83.4231 236.965 86.3098C236.965 89.37 236.426 92.2887 235.349 95.0679C234.271 97.8477 232.753 100.326 230.792 102.502C228.831 104.679 226.536 106.391 223.908 107.641C221.279 108.891 218.414 109.515 215.311 109.515ZM199.604 86.2452C199.604 88.5723 199.98 90.8239 200.735 93C201.488 95.1761 202.555 97.1044 203.935 98.7849C205.313 100.465 206.973 101.802 208.912 102.793C210.85 103.784 213.005 104.279 215.376 104.279C217.832 104.279 220.03 103.762 221.969 102.728C223.908 101.694 225.557 100.316 226.914 98.5909C228.271 96.8681 229.306 94.9283 230.016 92.7734C230.728 90.6191 231.083 88.443 231.083 86.2452C231.083 83.918 230.705 81.6779 229.952 79.5224C229.197 77.3681 228.12 75.4398 226.72 73.7374C225.319 72.0358 223.66 70.6997 221.743 69.7297C219.825 68.7598 217.703 68.2752 215.376 68.2752C212.92 68.2752 210.722 68.7822 208.783 69.7944C206.843 70.8072 205.195 72.1753 203.838 73.8988C202.48 75.6228 201.434 77.5512 200.703 79.6843C199.969 81.8175 199.604 84.0051 199.604 86.2452Z" fill="white"/>
<path d="M284.733 109.192V74.1574L269.607 101.112H266.052L250.862 74.1574V109.192H245.044V63.2976H251.185L267.797 93.0967L284.475 63.2976H290.55V109.192H284.733Z" fill="white"/>
<path d="M332.695 104.021V109.192H301.539V63.2981H332.113V68.4697H307.357V83.336H328.882V88.1842H307.357V104.021H332.695Z" fill="white"/>
<rect x="64.4241" y="17.4818" width="9.64601" height="26.6326" fill="white"/>
<rect x="82.179" y="17.4818" width="9.64601" height="26.6326" fill="#AFAFAF"/>
<rect x="303.24" y="17.4113" width="9.646" height="26.6326" fill="white"/>
<rect x="285.485" y="17.4113" width="9.646" height="26.6326" fill="#AFAFAF"/>
<path d="M312.354 29.2875H352.248V163.589H25.0618V29.2875H64.4237" stroke="white" stroke-width="2"/>
<rect y="0.0553131" width="4.82332" height="180.89" fill="#AFAFAF"/>
<rect x="372.487" y="0.0553131" width="4.82332" height="180.89" fill="#AFAFAF"/>
<rect x="1.41568" y="176.122" width="375.895" height="4.82332" fill="#AFAFAF"/>
<rect x="1.4155" y="0.0553131" width="375.895" height="4.82332" fill="#AFAFAF"/>
</g>
</svg>
