<svg width="26" height="28" viewBox="0 0 26 28" fill="none" xmlns="http://www.w3.org/2000/svg">
<mask id="mask0_11_587" style="mask-type:alpha" maskUnits="userSpaceOnUse" x="0" y="0" width="26" height="28">
<rect y="0.924683" width="25.7537" height="27.0413" fill="white"/>
</mask>
<g mask="url(#mask0_11_587)">
<path d="M22.5344 2.85621H20.6029C20.6029 1.79133 19.7363 0.924683 18.6714 0.924683C17.6064 0.924683 16.7398 1.79133 16.7398 2.85621H9.01375C9.01375 1.79133 8.14716 0.924683 7.08223 0.924683C6.0173 0.924683 5.15071 1.79133 5.15071 2.85621H3.21919C1.44412 2.85621 0 4.30038 0 6.07545V24.7468C0 26.5219 1.44412 27.966 3.21919 27.966H22.5344C24.3095 27.966 25.7536 26.5219 25.7536 24.7468V6.07545C25.7536 4.30038 24.3095 2.85621 22.5344 2.85621ZM18.0275 2.85621C18.0275 2.50147 18.316 2.2124 18.6714 2.2124C19.0268 2.2124 19.3152 2.50147 19.3152 2.85621V4.14393C19.3152 4.49866 19.0268 4.78773 18.6714 4.78773C18.316 4.78773 18.0275 4.49866 18.0275 4.14393V2.85621ZM6.43837 2.85621C6.43837 2.50147 6.72683 2.2124 7.08223 2.2124C7.43763 2.2124 7.72609 2.50147 7.72609 2.85621V4.14393C7.72609 4.49866 7.43763 4.78773 7.08223 4.78773C6.72683 4.78773 6.43837 4.49866 6.43837 4.14393V2.85621ZM1.28766 6.07545C1.28766 5.01052 2.15425 4.14393 3.21919 4.14393H5.15071C5.15071 5.2088 6.0173 6.07545 7.08223 6.07545C8.14716 6.07545 9.01375 5.2088 9.01375 4.14393H16.7398C16.7398 5.2088 17.6064 6.07545 18.6714 6.07545C19.7363 6.07545 20.6029 5.2088 20.6029 4.14393H22.5344C23.5994 4.14393 24.4659 5.01052 24.4659 6.07545V8.65078H1.28766V6.07545ZM24.4659 24.7468C24.4659 25.8118 23.5994 26.6783 22.5344 26.6783H3.21919C2.15425 26.6783 1.28766 25.8118 1.28766 24.7468V9.9385H24.4659V24.7468Z" fill="white"/>
<path d="M5.1507 17.0206H7.08221C7.79236 17.0206 8.36988 16.4431 8.36988 15.733V13.8015C8.36988 13.0913 7.79236 12.5138 7.08221 12.5138H5.1507C4.44056 12.5138 3.86304 13.0913 3.86304 13.8015V15.733C3.86304 16.4431 4.44056 17.0206 5.1507 17.0206ZM5.1507 13.8015H7.08221L7.08349 15.733H5.1507V13.8015Z" fill="white"/>
<path d="M11.911 17.0206H13.8426C14.5527 17.0206 15.1302 16.4431 15.1302 15.733V13.8015C15.1302 13.0913 14.5527 12.5138 13.8426 12.5138H11.911C11.2009 12.5138 10.6234 13.0913 10.6234 13.8015V15.733C10.6234 16.4431 11.2009 17.0206 11.911 17.0206ZM11.911 13.8015H13.8426L13.8438 15.733H11.911V13.8015Z" fill="white"/>
<path d="M18.6714 17.0206H20.6029C21.313 17.0206 21.8905 16.4431 21.8905 15.733V13.8015C21.8905 13.0913 21.313 12.5138 20.6029 12.5138H18.6714C17.9612 12.5138 17.3837 13.0913 17.3837 13.8015V15.733C17.3837 16.4431 17.9612 17.0206 18.6714 17.0206ZM18.6714 13.8015H20.6029L20.6042 15.733H18.6714V13.8015Z" fill="white"/>
<path d="M5.1507 24.1029H7.08221C7.79236 24.1029 8.36988 23.5254 8.36988 22.8152V20.8837C8.36988 20.1736 7.79236 19.5961 7.08221 19.5961H5.1507C4.44056 19.5961 3.86304 20.1736 3.86304 20.8837V22.8152C3.86304 23.5254 4.44056 24.1029 5.1507 24.1029ZM5.1507 20.8837H7.08221L7.08349 22.8152H5.1507V20.8837Z" fill="white"/>
<path d="M11.911 24.1029H13.8426C14.5527 24.1029 15.1302 23.5254 15.1302 22.8152V20.8837C15.1302 20.1736 14.5527 19.5961 13.8426 19.5961H11.911C11.2009 19.5961 10.6234 20.1736 10.6234 20.8837V22.8152C10.6234 23.5254 11.2009 24.1029 11.911 24.1029ZM11.911 20.8837H13.8426L13.8438 22.8152H11.911V20.8837Z" fill="white"/>
<path d="M18.6714 24.1029H20.6029C21.313 24.1029 21.8905 23.5254 21.8905 22.8152V20.8837C21.8905 20.1736 21.313 19.5961 20.6029 19.5961H18.6714C17.9612 19.5961 17.3837 20.1736 17.3837 20.8837V22.8152C17.3837 23.5254 17.9612 24.1029 18.6714 24.1029ZM18.6714 20.8837H20.6029L20.6042 22.8152H18.6714V20.8837Z" fill="white"/>
</g>
</svg>
