<svg width="23" height="26" viewBox="0 0 23 26" fill="none" xmlns="http://www.w3.org/2000/svg">
<mask id="mask0_11_583" style="mask-type:alpha" maskUnits="userSpaceOnUse" x="0" y="0" width="23" height="26">
<rect x="0.0471191" y="0.65625" width="22.6078" height="24.8008" fill="white"/>
</mask>
<g mask="url(#mask0_11_583)">
<path d="M15.7102 8.45765C15.7103 6.05013 13.7586 4.09847 11.3511 4.09842C8.94358 4.09838 6.99192 6.05003 6.99187 8.45755C6.99182 10.8651 8.94348 12.8167 11.351 12.8168C13.7573 12.8139 15.7073 10.864 15.7102 8.45765ZM8.54197 8.45765C8.54192 6.90619 9.79959 5.64852 11.351 5.64847C12.9025 5.64842 14.1602 6.9061 14.1602 8.45755C14.1603 10.009 12.9026 11.2667 11.3511 11.2667C9.80046 11.265 8.54371 10.0083 8.54197 8.45765ZM10.8731 21.0272C11.1552 21.251 11.5543 21.251 11.8365 21.0272C15.3601 18.2318 19.1524 13.106 19.1524 8.45765C19.1524 4.15597 15.6528 0.65625 11.351 0.65625C7.04932 0.65625 3.54965 4.15597 3.54965 8.45765C3.54965 10.6443 4.38638 13.1049 5.96927 15.5733C7.26613 17.5958 9.05348 19.5836 10.8731 21.0272ZM11.351 2.2063C14.802 2.21013 17.5986 5.0067 17.6024 8.45765C17.6024 12.2181 14.5344 16.7056 11.3545 19.4167C8.25579 16.7807 5.0997 12.3833 5.0997 8.45765C5.10352 5.0067 7.9001 2.21013 11.351 2.2063ZM22.655 21.3613C22.655 22.248 22.0259 23.5034 19.0292 24.4486C16.9672 25.0989 14.2403 25.457 11.351 25.457C8.46175 25.457 5.73493 25.0989 3.67288 24.4486C0.676148 23.5034 0.0471191 22.248 0.0471191 21.3613C0.0471191 19.835 1.88126 18.5949 5.21164 17.8698C5.62986 17.7787 6.04276 18.044 6.13382 18.4622C6.22489 18.8804 5.95964 19.2933 5.54141 19.3844C2.66796 20.01 1.59717 20.929 1.59717 21.3613C1.59717 21.6405 2.12845 22.3361 4.1391 22.9703C6.05433 23.5743 8.6156 23.907 11.351 23.907C14.0865 23.907 16.6478 23.5743 18.563 22.9703C20.5736 22.3361 21.1049 21.6405 21.1049 21.3613C21.1049 20.929 20.0341 20.0099 17.1606 19.3842C16.7424 19.2932 16.4772 18.8803 16.5682 18.462C16.6593 18.0438 17.0722 17.7786 17.4904 17.8696C20.8209 18.5948 22.655 19.8349 22.655 21.3613Z" fill="white"/>
</g>
</svg>
