<svg width="22" height="22" viewBox="0 0 22 22" fill="none" xmlns="http://www.w3.org/2000/svg">
<mask id="mask0_19_829" style="mask-type:alpha" maskUnits="userSpaceOnUse" x="0" y="0" width="22" height="22">
<rect width="21.3692" height="21.3733" fill="white"/>
</mask>
<g mask="url(#mask0_19_829)">
<path d="M21.3149 6.28381C21.2649 5.14818 21.0812 4.36744 20.8181 3.6909C20.5467 2.97278 20.1292 2.32986 19.5822 1.79536C19.0477 1.25262 18.4005 0.830842 17.6907 0.563654C17.0103 0.300607 16.2336 0.116989 15.098 0.0668806C13.9538 0.012548 13.5906 0 10.6888 0C7.78693 0 7.42371 0.012548 6.28385 0.0626143C5.14818 0.112723 4.36744 0.29655 3.69107 0.55943C2.97278 0.830842 2.32986 1.24835 1.7954 1.79536C1.25258 2.32986 0.830968 2.977 0.563654 3.68688C0.300607 4.36744 0.116947 5.14395 0.0668806 6.27959C0.012548 7.42371 0 7.78697 0 10.6888C0 13.5906 0.012548 13.9538 0.0626143 15.0937C0.112723 16.2294 0.296508 17.0101 0.559597 17.6866C0.830968 18.4048 1.25258 19.0477 1.7954 19.5821C2.32986 20.125 2.97705 20.5467 3.68684 20.8139C4.36744 21.0769 5.14395 21.2606 6.27975 21.3107C7.41948 21.3609 7.78287 21.3733 10.6847 21.3733C13.5865 21.3733 13.9497 21.3609 15.0896 21.3107C16.2253 21.2606 17.006 21.0769 17.6824 20.8139C19.1188 20.2585 20.2545 19.1229 20.8098 17.6866C21.0727 17.006 21.2565 16.2294 21.3066 15.0937C21.3567 13.9538 21.3692 13.5906 21.3692 10.6888C21.3692 7.78697 21.365 7.42371 21.3149 6.28381ZM19.3902 15.0102C19.3442 16.054 19.1689 16.6177 19.0228 16.9935C18.6636 17.9246 17.9246 18.6636 16.9935 19.0228C16.6177 19.1689 16.05 19.3442 15.0102 19.39C13.8829 19.4403 13.5448 19.4526 10.693 19.4526C7.84126 19.4526 7.49891 19.4403 6.37566 19.39C5.33184 19.3442 4.76818 19.1689 4.39237 19.0228C3.92902 18.8515 3.50724 18.5801 3.16493 18.2252C2.81003 17.8786 2.53862 17.4611 2.36738 16.9977C2.22124 16.622 2.0459 16.054 2.00006 15.0144C1.94983 13.8871 1.93745 13.5489 1.93745 10.6971C1.93745 7.84536 1.94983 7.50301 2.00006 6.37989C2.0459 5.3361 2.22124 4.77241 2.36738 4.39664C2.53862 3.93312 2.81003 3.51151 3.16916 3.16899C3.51556 2.81409 3.93312 2.54268 4.39664 2.37165C4.77241 2.22546 5.34033 2.05013 6.37989 2.00416C7.50724 1.95414 7.84549 1.9415 10.6971 1.9415C13.5531 1.9415 13.8912 1.95414 15.0144 2.00416C16.0583 2.05013 16.622 2.22546 16.9977 2.37165C17.4611 2.54268 17.8829 2.81409 18.2252 3.16899C18.5801 3.5156 18.8515 3.93312 19.0228 4.39664C19.1689 4.77241 19.3442 5.34016 19.3902 6.37989C19.4403 7.50724 19.4528 7.84536 19.4528 10.6971C19.4528 13.5489 19.4403 13.8829 19.3902 15.0102Z" fill="white"/>
<path d="M10.6888 5.19824C7.65761 5.19824 5.19824 7.65743 5.19824 10.6888C5.19824 13.7201 7.65761 16.1793 10.6888 16.1793C13.7201 16.1793 16.1793 13.7201 16.1793 10.6888C16.1793 7.65743 13.7201 5.19824 10.6888 5.19824ZM10.6888 14.2503C8.72227 14.2503 7.1272 12.6554 7.1272 10.6888C7.1272 8.72214 8.72227 7.1272 10.6888 7.1272C12.6554 7.1272 14.2503 8.72214 14.2503 10.6888C14.2503 12.6554 12.6554 14.2503 10.6888 14.2503Z" fill="white"/>
<path d="M17.6783 4.98099C17.6783 5.68883 17.1044 6.26277 16.3964 6.26277C15.6886 6.26277 15.1146 5.68883 15.1146 4.98099C15.1146 4.27299 15.6886 3.69922 16.3964 3.69922C17.1044 3.69922 17.6783 4.27299 17.6783 4.98099Z" fill="white"/>
</g>
</svg>
