<svg width="48" height="38" viewBox="0 0 48 38" fill="none" xmlns="http://www.w3.org/2000/svg">
<mask id="mask0_11_633" style="mask-type:alpha" maskUnits="userSpaceOnUse" x="0" y="0" width="48" height="38">
<rect y="0.509033" width="47.6006" height="36.9819" fill="#AFAFAF"/>
</mask>
<g mask="url(#mask0_11_633)">
<path d="M47.1184 9.40427L31.1275 0.623735C30.849 0.470799 30.5112 0.470799 30.2327 0.623735L24.2194 3.92565C24.0836 3.9634 23.9569 4.03275 23.8494 4.12861L14.2419 9.40427C13.9445 9.56772 13.7596 9.88 13.7596 10.2192V12.12H3.03315C2.51968 12.12 2.10345 12.5366 2.10345 13.0497C2.10345 13.5633 2.51968 13.9794 3.03315 13.9794H13.7596V17.3263H8.4294C7.91593 17.3263 7.49971 17.7429 7.49971 18.256C7.49971 18.7696 7.91593 19.1857 8.4294 19.1857H13.7596V24.0202H5.95008C5.43661 24.0202 5.02038 24.4368 5.02038 24.9499C5.02038 25.4634 5.43661 25.8796 5.95008 25.8796H13.7596V27.7807C13.7596 28.12 13.9445 28.4322 14.2419 28.5957L30.2327 37.3762C30.3722 37.4529 30.5261 37.491 30.6801 37.491C30.8341 37.491 30.9881 37.4529 31.1275 37.3762L47.1184 28.5957C47.4158 28.4322 47.6006 28.12 47.6006 27.7807V23.6174C47.6006 23.1043 47.1845 22.6877 46.6709 22.6877C46.1574 22.6877 45.7412 23.1043 45.7412 23.6174V27.2305L31.6098 34.9902V19.55L36.1039 17.0823V20.9986C36.1039 21.3277 36.2775 21.632 36.5604 21.7991C36.7061 21.8851 36.8699 21.9283 37.0336 21.9283C37.1877 21.9283 37.342 21.8902 37.4818 21.8132L40.9086 19.9274C41.2053 19.7639 41.3898 19.452 41.3898 19.1127V14.1799L45.7412 11.7906V16.1798C45.7412 16.6934 46.1574 17.1095 46.6709 17.1095C47.1845 17.1095 47.6006 16.6934 47.6006 16.1798V10.2192C47.6006 9.88 47.4158 9.56772 47.1184 9.40427ZM29.7504 34.9902L15.6189 27.2305V11.7906L29.7504 19.55V34.9902ZM30.6801 17.9394L16.621 10.2192L21.0396 7.79292L35.0991 15.513L30.6801 17.9394ZM37.0308 14.4523L22.9712 6.73213L24.4954 5.89541L38.5546 13.6155L37.0308 14.4523ZM39.5304 18.5633L37.9633 19.4258V16.0615L39.5304 15.2008V18.5633ZM40.4863 12.5547L26.4271 4.83462L30.6801 2.4995L44.7393 10.2192L40.4863 12.5547Z" fill="#AFAFAF"/>
<path d="M46.6709 18.9692C46.4265 18.9692 46.1865 19.0677 46.0136 19.2416C45.8407 19.4145 45.7412 19.6534 45.7412 19.8989C45.7412 20.1433 45.8407 20.3834 46.0136 20.5562C46.1865 20.7292 46.4265 20.8286 46.6709 20.8286C46.9153 20.8286 47.1554 20.7292 47.3282 20.5562C47.5012 20.3834 47.6006 20.1433 47.6006 19.8989C47.6006 19.6534 47.5012 19.4145 47.3282 19.2416C47.1554 19.0677 46.9153 18.9692 46.6709 18.9692Z" fill="#AFAFAF"/>
<path d="M2.26214 24.02H0.929699C0.416226 24.02 0 24.4365 0 24.9497C0 25.4632 0.416226 25.8794 0.929699 25.8794H2.26214C2.77562 25.8794 3.19184 25.4632 3.19184 24.9497C3.19184 24.4365 2.77562 24.02 2.26214 24.02Z" fill="#AFAFAF"/>
<path d="M5.64065 18.2559C5.64065 18.0115 5.54117 17.7718 5.36787 17.599C5.19504 17.4258 4.95537 17.3262 4.71095 17.3262C4.46616 17.3262 4.22648 17.4258 4.05365 17.599C3.8797 17.7718 3.78125 18.0115 3.78125 18.2559C3.78125 18.5007 3.8797 18.7403 4.05365 18.9133C4.22648 19.0861 4.46616 19.1856 4.71095 19.1856C4.95537 19.1856 5.19504 19.0866 5.36787 18.9133C5.54117 18.7403 5.64065 18.5007 5.64065 18.2559Z" fill="#AFAFAF"/>
</g>
</svg>
