<svg width="50" height="45" viewBox="0 0 50 45" fill="none" xmlns="http://www.w3.org/2000/svg">
<mask id="mask0_11_629" style="mask-type:alpha" maskUnits="userSpaceOnUse" x="0" y="0" width="50" height="45">
<rect x="0.400024" y="0.703125" width="49.3628" height="44.2969" fill="#AFAFAF"/>
</mask>
<g mask="url(#mask0_11_629)">
<path d="M42.7533 29.5994L33.9954 33.2994C34.011 33.1901 34.0266 33.0807 34.0266 32.9637C34.0266 31.2621 32.645 29.8805 30.9434 29.8805H24.6365C24.3789 29.8805 24.1291 29.8259 23.8949 29.7166L18.5481 27.2968C17.7129 26.9222 16.784 26.7192 15.8708 26.7192H11.5152V28.2803H15.8708C16.5654 28.2803 17.2679 28.4286 17.908 28.7174L23.2549 31.1371C23.692 31.3323 24.1604 31.4337 24.6443 31.4337H30.9512C31.7942 31.4337 32.4733 32.1207 32.4733 32.9559C32.4733 33.791 31.7864 34.478 30.9512 34.478H22.7788V36.0391H30.9434C31.482 36.0391 31.9815 35.8908 32.4187 35.6488V35.6566L43.3543 31.0279C44.2598 30.6454 45.2511 30.6532 46.1487 31.0435C46.8356 31.3479 47.3977 31.8397 47.7723 32.4797L28.469 42.7207C26.9938 43.5012 25.2375 43.6574 23.6452 43.1499L14.2004 40.1136L11.5074 40.0746V41.6358H13.8412L23.169 44.6331C23.9417 44.8828 24.7379 44.9999 25.5419 44.9999C26.8065 44.9999 28.071 44.6956 29.1949 44.0945L49.7627 33.1978L49.5364 32.5578C49.0602 31.2308 48.0768 30.1848 46.781 29.6151C45.4853 29.0609 44.0568 29.0452 42.7533 29.5994Z" fill="#AFAFAF"/>
<path d="M9.82142 42.8612V26.2899C9.82142 25.4312 9.11889 24.7288 8.26031 24.7288H0.400024V26.2899H8.26031V42.8691H0.400024V44.4302H8.26031C9.11889 44.4223 9.82142 43.7198 9.82142 42.8612Z" fill="#AFAFAF"/>
<path d="M6.20738 40.4336C6.20738 41.0346 5.71565 41.5264 5.11455 41.5264C4.5057 41.5264 4.01398 41.0346 4.01398 40.4336C4.01398 39.8247 4.5057 39.333 5.11455 39.333C5.71565 39.333 6.20738 39.8247 6.20738 40.4336Z" fill="#AFAFAF"/>
<path d="M18.8681 19.2805L19.7111 19.9049L25.5185 16.689L30.7717 19.8503L31.2244 20.1157L32.0675 19.5069L30.8029 12.997L35.4473 8.96931L35.822 8.6102L35.4941 7.64234L28.9218 6.83054L26.5332 1.17926L26.3147 0.710873L25.8151 0.703125H25.2843L22.4822 6.72127L16.3625 7.23644L15.8396 7.29883L15.5273 8.27453L20.3746 12.7941L18.8681 19.2805ZM18.2047 8.64924L23.0597 8.22774L23.5203 8.17311L25.7605 3.36481L27.6572 7.83744L27.8524 8.26678L33.129 8.91467L29.4759 12.0837L29.109 12.3959L30.1238 17.6257L25.9401 15.1045L25.5419 14.8938L20.9132 17.4618L21.9982 12.7785L22.1309 12.2945L18.2047 8.64924Z" fill="#AFAFAF"/>
<path d="M8.60376 16.4003L7.47199 21.2632L7.31583 21.8252L8.19786 22.4731L13.0608 19.7801L17.3538 22.356L17.8378 22.6604L18.7042 22.0282L17.6427 16.5721L18.7745 15.5964L17.752 14.4177L16.2455 15.7212L16.0191 15.9865V16.2988L16.7528 20.1783L13.5837 18.2659L13.4198 18.1097L12.7563 18.0941L12.6003 18.2502L9.36092 20.0455L10.2351 16.252V15.7915L7.19871 12.9659L10.9142 12.6379L11.2733 12.6302L11.6011 12.3024L13.2637 8.72736L14.7624 12.2633L15.0044 12.7239H15.4414L17.3226 12.958L17.5178 11.4046L16.0113 11.2251L14.0287 6.54181L13.7633 6.04224L12.6861 6.12806L12.5378 6.5886L10.4303 11.1237L5.46594 11.553L4.84924 11.5843L4.52142 12.7239L4.95077 13.0048L8.60376 16.4003Z" fill="#AFAFAF"/>
<path d="M34.2609 11.2252L34.4013 12.7786L35.9077 12.638L36.259 12.6224L36.5869 12.2946L38.2495 8.71957L39.678 12.0838L39.6936 12.7161H40.4273L44.1506 13.1766L41.2547 15.69L40.9971 15.9632V16.2988L41.7387 20.1705L38.5618 18.2658L38.3978 18.1019L37.711 18.1098L37.5705 18.2581L34.3467 20.0456L35.2287 16.252L35.221 15.7915L33.2227 13.9259L32.1534 15.0655L33.5818 16.4004L32.4578 21.2632L32.3017 21.7862L33.1525 22.4887L38.0466 19.7802L42.3475 22.3639L42.8314 22.6604L43.6823 22.0204L42.6207 16.572L46.3752 13.3171C46.6329 13.1141 46.7421 12.7707 46.6562 12.4585L46.4767 11.9043L40.9971 11.233L38.9989 6.53402L38.7647 6.10468L37.8358 6.07349L37.5939 6.45594L35.4083 11.1237L34.2609 11.2252Z" fill="#AFAFAF"/>
</g>
</svg>
