<svg width="38" height="38" viewBox="0 0 38 38" fill="none" xmlns="http://www.w3.org/2000/svg">
<mask id="mask0_11_637" style="mask-type:alpha" maskUnits="userSpaceOnUse" x="0" y="0" width="38" height="38">
<rect y="0.427734" width="37.5614" height="37.5723" fill="#AFAFAF"/>
</mask>
<g mask="url(#mask0_11_637)">
<path d="M26.7545 18.9414L33.7222 11.9736C33.7841 11.9094 33.8329 11.8338 33.8627 11.7498L37.5285 1.22047C37.6031 1.00609 37.5485 0.767891 37.388 0.607491C37.2273 0.446943 36.989 0.392589 36.7748 0.467354L26.2515 4.13925C26.1681 4.16964 26.0906 4.21786 26.0281 4.27953L19.0604 11.2472L8.84699 1.03389C8.03878 0.225608 6.72378 0.225755 5.9155 1.03389L0.613277 6.33619C-0.194935 7.14432 -0.194935 8.4594 0.613277 9.26761L10.8267 19.481L2.79469 27.5129L1.04596 29.2616C0.371456 29.9361 0 30.8329 0 31.7868C0 32.7407 0.371456 33.6375 1.04596 34.312L3.68957 36.9557C4.38582 37.6519 5.30037 38 6.21485 38C7.1294 38 8.04388 37.6519 8.74013 36.9557L10.4889 35.207L18.5208 27.1751L28.7086 37.3629C29.1126 37.767 29.6434 37.969 30.1743 37.969C30.7052 37.969 31.2359 37.767 31.6401 37.3629L36.9423 32.0606C37.7505 31.2525 37.7505 29.9374 36.9423 29.1291L26.7545 18.9414ZM25.4996 18.5229L18.1024 25.9201L12.6292 31.3933L10.0369 28.8009L20.4116 18.4262C20.4341 18.4094 20.4559 18.3915 20.4763 18.3711L22.912 15.9354C22.9324 15.915 22.9503 15.8932 22.9671 15.8707L29.3773 9.46055L29.5138 11.3685C29.5348 11.6619 29.7683 11.8954 30.0616 11.9164L31.9696 12.0529L25.4996 18.5229ZM10.0705 33.952L4.04971 27.9312L5.77174 26.2091L8.78147 29.2189L8.78221 29.2196L11.7925 32.2299L10.0705 33.952ZM12.0812 19.8998L19.4787 12.5022L25.9486 6.03225L26.085 7.93967C26.1059 8.23311 26.3395 8.46664 26.6329 8.48757L28.5405 8.62401L9.20018 27.9642L6.60842 25.3725L12.0812 19.8998ZM31.9184 3.41512L34.5836 6.08024L32.8941 10.9328L30.6574 10.7727L30.465 8.08402C30.4483 7.79746 30.2036 7.55298 29.9171 7.53619L27.2286 7.34392L27.0688 5.10727L31.9184 3.41512ZM35.0158 4.83905L33.1589 2.98221L36.0084 1.98801L35.0158 4.83905ZM1.44996 8.431C1.10305 8.0841 1.10305 7.5197 1.44996 7.1728L6.75218 1.8705C6.9256 1.69709 7.15344 1.61034 7.38128 1.61034C7.60905 1.61034 7.83689 1.69709 8.01031 1.8705L8.95104 2.81123L6.93373 4.82855C6.70271 5.05957 6.70271 5.43421 6.93373 5.66523C7.04931 5.78074 7.20077 5.8385 7.35214 5.8385C7.50352 5.8385 7.6549 5.78074 7.77049 5.66523L9.78772 3.64792L12.1275 5.98773L11.2231 6.89215C10.9921 7.12318 10.9921 7.49774 11.2231 7.72876C11.3387 7.84427 11.4901 7.90203 11.6415 7.90203C11.7929 7.90203 11.9443 7.84427 12.0599 7.72876L12.9642 6.82441L15.304 9.16415L13.2867 11.1815C13.0557 11.4125 13.0557 11.7871 13.2867 12.0181C13.4022 12.1337 13.5536 12.1914 13.7051 12.1914C13.8565 12.1914 14.0079 12.1337 14.1234 12.0181L16.1406 10.0008L18.2237 12.0839L11.6633 18.6443L1.44996 8.431ZM7.90345 36.119C6.97248 37.05 5.45744 37.0501 4.52633 36.119L1.88272 33.4754C1.43162 33.0244 1.18322 32.4247 1.18322 31.7868C1.18322 31.149 1.43162 30.5493 1.88272 30.0982L3.21303 28.7679L9.23383 34.7887L7.90345 36.119ZM36.1056 31.224L30.8034 36.5262C30.4566 36.873 29.8921 36.8731 29.5452 36.5262L19.3574 26.3384L25.9179 19.778L28.0099 21.8701L25.9926 23.8874C25.7615 24.1184 25.7615 24.493 25.9926 24.724C26.1081 24.8395 26.2594 24.8972 26.4109 24.8972C26.5623 24.8972 26.7137 24.8395 26.8293 24.724L28.8465 22.7067L31.1863 25.0465L30.2819 25.9509C30.0508 26.1819 30.0508 26.5566 30.2819 26.7876C30.3975 26.9031 30.5488 26.9609 30.7002 26.9609C30.8517 26.9609 31.003 26.9031 31.1186 26.7876L32.023 25.8832L34.3628 28.223L32.3455 30.2403C32.1144 30.4713 32.1144 30.8459 32.3455 31.0769C32.4611 31.1924 32.6124 31.2502 32.7639 31.2502C32.9153 31.2502 33.0666 31.1924 33.1822 31.0769L35.1995 29.0597L36.1056 29.9658C36.4525 30.3127 36.4525 30.8771 36.1056 31.224Z" fill="#AFAFAF"/>
</g>
</svg>
