<svg width="50" height="44" viewBox="0 0 50 44" fill="none" xmlns="http://www.w3.org/2000/svg">
<mask id="mask0_11_625" style="mask-type:alpha" maskUnits="userSpaceOnUse" x="0" y="0" width="50" height="44">
<rect x="0.80835" width="48.3833" height="43.698" fill="#AFAFAF"/>
</mask>
<g mask="url(#mask0_11_625)">
<path d="M48.603 24.6588C48.0635 23.8093 47.2254 23.2208 46.2432 23.0015C45.9155 22.9284 45.5882 22.9013 45.2675 22.9146V15.6473C45.2675 13.1484 43.2346 11.1154 40.7357 11.1154H38.7642C38.3728 11.1154 38.0555 11.4326 38.0555 11.8241C38.0555 12.2156 38.3727 12.5328 38.7642 12.5328H40.7357C42.4529 12.5328 43.8501 13.93 43.8501 15.6473V23.2575C42.8185 23.7332 42.0116 24.6666 41.7457 25.8582L41.6996 26.0643C41.0827 25.7608 40.3983 25.5986 39.7051 25.5986H28.8023C27.6056 25.5986 26.5171 26.0679 25.7088 26.8311V21.7118C25.7088 21.3203 25.3916 21.0031 25.0001 21.0031C24.6086 21.0031 24.2914 21.3203 24.2914 21.7118V26.8319C23.475 26.0634 22.3788 25.5986 21.1979 25.5986H10.2949C9.59092 25.5986 8.9145 25.7568 8.29979 26.0614L8.25443 25.8581C7.98851 24.6665 7.18159 23.7331 6.15005 23.2574V15.6472C6.15005 14.9747 6.36598 14.3319 6.75607 13.8023L7.07084 14.378C7.24547 14.697 7.57981 14.8952 7.94344 14.8952C8.30716 14.8952 8.6414 14.6969 8.81604 14.3778L9.78408 12.608L9.92346 12.5317C9.9297 12.5319 9.93584 12.5326 9.94217 12.5326H21.1769C22.8941 12.5326 24.2913 13.9298 24.2913 15.6471V18.623C24.2913 19.0144 24.6085 19.3317 25 19.3317C25.3914 19.3317 25.7087 19.0145 25.7087 18.623V15.6471C25.7087 13.9298 27.1059 12.5326 28.8231 12.5326H35.6755C36.0669 12.5326 36.3842 12.2154 36.3842 11.8239C36.3842 11.4325 36.067 11.1152 35.6755 11.1152H28.8231C27.2174 11.1152 25.8052 11.9554 25 13.2183C24.1948 11.9553 22.7826 11.1152 21.1769 11.1152H12.0066C12.0477 11.0054 12.0715 10.8883 12.0715 10.7671C12.0715 10.4033 11.8731 10.0691 11.554 9.89453L9.78408 8.92649L8.81613 7.15663C8.6415 6.83742 8.30716 6.63916 7.94344 6.63916C7.57971 6.63916 7.24538 6.83752 7.07084 7.15654L6.10271 8.92649L4.33275 9.89453C4.01373 10.0692 3.81556 10.4035 3.81556 10.7671C3.81556 11.1308 4.01382 11.4652 4.33285 11.6397L5.9706 12.5355C5.17861 13.3727 4.73248 14.4793 4.73248 15.647V22.9143C4.41185 22.901 4.08451 22.9281 3.75669 23.0013C2.77457 23.2204 1.93646 23.809 1.39697 24.6585C0.857389 25.5079 0.680961 26.5166 0.900102 27.4988L2.39629 34.2046C2.91764 36.5414 4.86298 38.2154 7.20994 38.4085L6.63048 38.9881C5.5549 40.0639 5.5549 41.8141 6.63048 42.8897C7.15154 43.411 7.8444 43.698 8.5814 43.698C9.31839 43.698 10.0112 43.411 10.5323 42.8898L14.9945 38.4276H29.2688C29.6602 38.4276 29.9775 38.1104 29.9775 37.7189C29.9775 37.3274 29.6603 37.0101 29.2688 37.0101H7.6658C5.78699 37.0101 4.18902 35.7296 3.77994 33.896L2.28375 27.1902C2.00148 25.9256 2.80084 24.6671 4.06551 24.3848C5.33018 24.1024 6.58871 24.9019 6.87098 26.1667L7.58416 29.3631C7.97141 31.0983 9.48348 32.3101 11.2613 32.3101H38.739C40.5168 32.3101 42.0289 31.0983 42.4161 29.363L43.1293 26.1668C43.4115 24.902 44.6705 24.1028 45.9347 24.3848C47.1994 24.667 47.9988 25.9255 47.7165 27.1903L46.2203 33.8959C45.8113 35.7295 44.2133 37.0101 42.3345 37.0101H32.3577C31.9662 37.0101 31.649 37.3274 31.649 37.7189C31.649 38.1103 31.9662 38.4276 32.3577 38.4276H35.0055L39.4677 42.8897C39.9888 43.411 40.6816 43.698 41.4186 43.698C42.1556 43.698 42.8484 43.411 43.3695 42.8898C44.4451 41.8141 44.4451 40.0639 43.3695 38.988L42.7901 38.4085C45.137 38.2154 47.0824 36.5413 47.6037 34.2044L49.0999 27.4989C49.319 26.5169 49.1426 25.5082 48.603 24.6588ZM6.89139 10.1111C7.05884 10.0197 7.19577 9.88272 7.28724 9.71517L7.94353 8.51524L8.59982 9.71517C8.6913 9.88272 8.82823 10.0197 8.99539 10.1109L10.1957 10.7674L8.99577 11.4237C8.82823 11.5153 8.6912 11.6521 8.60001 11.8192L7.94353 13.0195L7.28724 11.8195C7.19577 11.6521 7.05884 11.5151 6.89177 11.4239L5.69145 10.7674L6.89139 10.1111ZM9.53016 41.8878C9.27681 42.1412 8.93992 42.2807 8.58159 42.2807C8.22325 42.2807 7.88636 42.1411 7.63301 41.8877C7.10996 41.3647 7.10996 40.5136 7.63301 39.9905L9.19582 38.4277H12.99L9.53016 41.8878ZM8.96761 29.0546L8.62231 27.507C9.12013 27.1853 9.6926 27.0161 10.2949 27.0161H21.1979C22.3373 27.0161 23.413 27.6702 23.9414 28.6792C24.3125 29.3878 24.2915 30.122 24.2915 30.8928H11.2612C10.1522 30.8928 9.20905 30.1369 8.96761 29.0546ZM38.739 30.8928H25.7088V30.1096C25.7088 28.4038 27.0965 27.0161 28.8023 27.0161H39.7053C40.3079 27.0161 40.8802 27.1853 41.3779 27.5071L41.0326 29.0545C40.7911 30.1369 39.8479 30.8928 38.739 30.8928ZM42.3672 41.8878C42.1138 42.1412 41.7769 42.2807 41.4186 42.2807C41.0603 42.2807 40.7234 42.1411 40.47 41.8877L37.0102 38.4278H40.8044L42.3672 39.9905C42.8902 40.5136 42.8902 41.3647 42.3672 41.8878Z" fill="#AFAFAF"/>
<path d="M32.1315 16.7552C31.8547 16.4784 31.406 16.4784 31.1292 16.7552C30.8524 17.032 30.8524 17.4807 31.1292 17.7574C31.406 18.0342 31.8548 18.0342 32.1315 17.7574C32.4082 17.4807 32.4082 17.032 32.1315 16.7552Z" fill="#AFAFAF"/>
<path d="M38.4299 17.7574C38.7066 17.4807 38.7066 17.032 38.4299 16.7552C38.1531 16.4784 37.7044 16.4784 37.4276 16.7552C37.1508 17.032 37.1508 17.4807 37.4276 17.7574C37.7044 18.0342 38.1531 18.0342 38.4299 17.7574Z" fill="#AFAFAF"/>
<path d="M31.1292 21.1045C30.8524 21.3813 30.8524 21.8301 31.1292 22.1067C31.406 22.3835 31.8548 22.3835 32.1315 22.1067C32.4082 21.83 32.4082 21.3813 32.1315 21.1045C31.8547 20.8278 31.406 20.8278 31.1292 21.1045Z" fill="#AFAFAF"/>
<path d="M38.4299 22.1068C38.7066 21.83 38.7066 21.3814 38.4299 21.1046C38.1531 20.8278 37.7044 20.8278 37.4276 21.1046C37.1508 21.3814 37.1508 21.83 37.4276 22.1068C37.7044 22.3836 38.1531 22.3836 38.4299 22.1068Z" fill="#AFAFAF"/>
<path d="M12.5726 16.7552C12.2958 16.4784 11.8472 16.4784 11.5704 16.7552C11.2936 17.032 11.2936 17.4807 11.5704 17.7574C11.8472 18.0342 12.2958 18.0342 12.5726 17.7574C12.8494 17.4807 12.8494 17.032 12.5726 16.7552Z" fill="#AFAFAF"/>
<path d="M18.871 16.7552C18.5942 16.4784 18.1456 16.4784 17.8688 16.7552C17.592 17.032 17.592 17.4807 17.8688 17.7574C18.1456 18.0342 18.5942 18.0342 18.871 17.7574C19.1478 17.4807 19.1478 17.032 18.871 16.7552Z" fill="#AFAFAF"/>
<path d="M11.5704 21.1045C11.2936 21.3813 11.2936 21.8301 11.5704 22.1067C11.8472 22.3835 12.2958 22.3835 12.5726 22.1067C12.8494 21.83 12.8494 21.3813 12.5726 21.1045C12.2958 20.8278 11.8472 20.8278 11.5704 21.1045Z" fill="#AFAFAF"/>
<path d="M17.8688 21.1045C17.592 21.3813 17.592 21.8301 17.8688 22.1067C18.1456 22.3835 18.5942 22.3835 18.871 22.1067C19.1478 21.83 19.1478 21.3813 18.871 21.1045C18.5942 20.8278 18.1456 20.8278 17.8688 21.1045Z" fill="#AFAFAF"/>
<path d="M16.3479 5.00057L18.1178 5.96861L19.0858 7.73847C19.2605 8.05768 19.5948 8.25594 19.9585 8.25594C20.3223 8.25594 20.6566 8.05768 20.8311 7.73856L21.7993 5.96861L23.569 5.00066C23.8882 4.82603 24.0865 4.49169 24.0865 4.12797C24.0865 3.76415 23.8882 3.42982 23.5691 3.25537L21.7992 2.28733L20.8312 0.517473C20.6566 0.198257 20.3223 0 19.9585 0C19.5948 0 19.2604 0.198257 19.0859 0.517378L18.1179 2.28733L16.348 3.25528C16.0288 3.42991 15.8306 3.76425 15.8306 4.12797C15.8306 4.49179 16.0288 4.82612 16.3479 5.00057ZM18.9069 3.4714C19.0739 3.38002 19.2106 3.24337 19.3019 3.0763L19.9584 1.87579L20.615 3.0763C20.7064 3.24328 20.843 3.38002 21.0102 3.4714L22.2105 4.12787L21.01 4.78445C20.8428 4.87602 20.706 5.01276 20.6148 5.17974L19.9583 6.38005L19.302 5.18011C19.2107 5.01276 19.0739 4.87592 18.9065 4.78435L17.7062 4.12787L18.9069 3.4714Z" fill="#AFAFAF"/>
</g>
</svg>
