<svg width="45" height="45" viewBox="0 0 45 45" fill="none" xmlns="http://www.w3.org/2000/svg">
<path d="M22.4847 0C10.0687 0 0 10.0687 0 22.4847C0 34.9008 10.0687 44.9694 22.4847 44.9694C34.9007 44.9694 44.9694 34.9008 44.9694 22.4847C44.9694 10.0687 34.9007 0 22.4847 0ZM22.9613 35.576C22.9616 35.576 22.9609 35.576 22.9613 35.576H22.9558C20.7034 35.5749 18.4902 35.0103 16.5246 33.9384L9.3907 35.8093L11.3 28.8377C10.1222 26.7977 9.50259 24.4832 9.50356 22.1121C9.50672 14.6945 15.5437 8.65995 22.9613 8.65995C26.5609 8.66135 29.94 10.0625 32.4806 12.6051C35.0215 15.1481 36.4199 18.5282 36.4186 22.1227C36.4156 29.5407 30.3778 35.576 22.9613 35.576Z" fill="white"/>
<path d="M22.9658 10.9323C16.7961 10.9323 11.7783 15.9478 11.7756 22.1132C11.7749 24.2259 12.3664 26.2834 13.4859 28.0638L13.7518 28.4867L12.6216 32.6131L16.855 31.5029L17.2636 31.7451C18.9808 32.764 20.9495 33.303 22.9565 33.3037H22.9609C29.1259 33.3037 34.1436 28.2877 34.1464 22.1221C34.1474 19.1342 32.985 16.3249 30.8733 14.2115C28.7616 12.098 25.953 10.9333 22.9658 10.9323ZM29.5449 26.9205C29.2646 27.7056 27.9214 28.4223 27.2753 28.519C26.6958 28.6055 25.963 28.6415 25.1574 28.3859C24.6688 28.2308 24.0427 28.024 23.2403 27.6777C19.8673 26.2217 17.6643 22.8265 17.4962 22.6021C17.3281 22.3777 16.1232 20.7792 16.1232 19.1245C16.1232 17.4701 16.9919 16.6567 17.3 16.3204C17.6085 15.9838 17.9728 15.8998 18.1969 15.8998C18.4209 15.8998 18.6452 15.9019 18.8412 15.9115C19.0476 15.9217 19.325 15.8329 19.5977 16.4886C19.8779 17.1617 20.5504 18.8161 20.6345 18.9842C20.7185 19.1527 20.7745 19.3489 20.6626 19.5733C20.5504 19.7976 20.1779 20.2818 19.8221 20.7229C19.6728 20.9079 19.4783 21.0726 19.6745 21.4091C19.8705 21.7454 20.5456 22.8463 21.545 23.7377C22.8296 24.8829 23.9131 25.2377 24.2493 25.4061C24.5851 25.5743 24.7814 25.5462 24.9776 25.3221C25.1735 25.0977 25.8182 24.3405 26.0422 24.004C26.2663 23.6673 26.4907 23.7236 26.7987 23.8358C27.1072 23.9476 28.7602 24.7612 29.0965 24.9292C29.4327 25.0977 29.6567 25.1817 29.7407 25.3221C29.8251 25.4624 29.8251 26.1352 29.5449 26.9205Z" fill="white"/>
</svg>
